<svg width="32" height="32" viewBox="0 0 32 32" fill="none" xmlns="http://www.w3.org/2000/svg">
<g clip-path="url(#clip0_10865_27)">
<path d="M16 32C24.8366 32 32 24.8366 32 16C32 7.16344 24.8366 0 16 0C7.16344 0 0 7.16344 0 16C0 24.8366 7.16344 32 16 32Z" fill="#0055E9"/>
<path fill-rule="evenodd" clip-rule="evenodd" d="M16 0C16.6907 0 17.3707 0.044 18.0373 0.128C19.973 0.620268 21.6644 1.79799 22.7977 3.44264C23.931 5.08729 24.4292 7.0872 24.1999 9.0713C23.9707 11.0554 23.0294 12.889 21.5509 14.2318C20.0724 15.5746 18.1569 16.3355 16.16 16.3733L16 16.3747C12.0133 16.3747 9.01067 19.28 8.59467 23.188C8.29733 25.9693 9.06533 29.0707 11.584 31.3827C4.896 29.4667 0 23.3053 0 16C0 7.164 7.164 0 16 0Z" fill="#A8DFF5"/>
<path fill-rule="evenodd" clip-rule="evenodd" d="M7.048 6.66664C7.40365 6.90282 7.70928 7.20675 7.94746 7.56106C8.18564 7.91537 8.35169 8.31313 8.43613 8.73162C8.52057 9.15011 8.52175 9.58114 8.4396 10.0001C8.35744 10.419 8.19357 10.8177 7.95733 11.1733C2.67467 19.128 3.67067 25.4973 11.488 31.3546C4.848 29.408 0 23.2693 0 16C0 13.6173 0.52 11.3573 1.45333 9.32531C1.79067 8.74531 2.15333 8.16264 2.54267 7.57731C3.01943 6.8592 3.76189 6.35986 4.60677 6.18908C5.45164 6.01831 6.32976 6.19009 7.048 6.66664Z" fill="#0055E9"/>
<path fill-rule="evenodd" clip-rule="evenodd" d="M17.3067 0.0533353C17.6694 0.0813353 18.0307 0.124002 18.3867 0.177335C19.164 0.318669 19.876 0.516002 20.4374 0.764002C29.288 4.66667 31.1974 14.1667 22.768 21.62C21.6753 22.5859 20.2436 23.0783 18.7879 22.9888C17.3321 22.8993 15.9716 22.2352 15.0054 21.1427C12.992 18.868 13.272 15.564 15.4814 13.38C16.6254 12.2493 19.6254 11.7493 20.8747 10.1253C22.5507 7.94667 23.704 2.11334 17.5107 0.117335L17.3067 0.0533353Z" fill="#00BCFF"/>
<path fill-rule="evenodd" clip-rule="evenodd" d="M18.0373 0.128011C19.9883 0.621628 21.6916 1.81143 22.8265 3.47341C23.9614 5.1354 24.4496 7.15492 24.1992 9.15179C23.9488 11.1486 22.977 12.9851 21.4669 14.3154C19.9568 15.6457 18.0125 16.3781 16 16.3747C15.2272 16.3725 14.4585 16.4871 13.72 16.7147C13.916 15.508 14.5133 14.336 15.4813 13.38C16.6253 12.2493 19.6253 11.7493 20.8746 10.1253C22.568 7.92401 23.728 1.98668 17.3066 0.0533447C17.552 0.0720114 17.796 0.0973447 18.0373 0.128011Z" fill="#ECECEE"/>
</g>
<defs>
<clipPath id="clip0_10865_27">
<rect width="32" height="32" fill="white"/>
</clipPath>
</defs>
</svg>
